<svg width="23" height="23" viewBox="0 0 23 23" fill="none" xmlns="http://www.w3.org/2000/svg">
<rect x="2.17969" y="2.0625" width="19.3594" height="19.3594" rx="4.14844" fill="white"/>
<path d="M16.6992 7.93945C16.6992 8.51223 16.2349 8.97656 15.6621 8.97656C15.0893 8.97656 14.625 8.51223 14.625 7.93945C14.625 7.36667 15.0893 6.90234 15.6621 6.90234C16.2349 6.90234 16.6992 7.36667 16.6992 7.93945Z" fill="#171848"/>
<path fill-rule="evenodd" clip-rule="evenodd" d="M11.8594 15.1992C13.7686 15.1992 15.3164 13.6515 15.3164 11.7422C15.3164 9.83292 13.7686 8.28516 11.8594 8.28516C9.95011 8.28516 8.40234 9.83292 8.40234 11.7422C8.40234 13.6515 9.95011 15.1992 11.8594 15.1992ZM11.8594 13.8164C13.0049 13.8164 13.9336 12.8877 13.9336 11.7422C13.9336 10.5966 13.0049 9.66797 11.8594 9.66797C10.7138 9.66797 9.78516 10.5966 9.78516 11.7422C9.78516 12.8877 10.7138 13.8164 11.8594 13.8164Z" fill="#171848"/>
<path fill-rule="evenodd" clip-rule="evenodd" d="M4.94531 11.4656C4.94531 9.14228 4.94531 7.98061 5.39747 7.09321C5.79519 6.31263 6.42982 5.678 7.2104 5.28028C8.0978 4.82812 9.25947 4.82812 11.5828 4.82812H12.1359C14.4593 4.82812 15.621 4.82812 16.5084 5.28028C17.2889 5.678 17.9236 6.31263 18.3213 7.09321C18.7734 7.98061 18.7734 9.14228 18.7734 11.4656V12.0187C18.7734 14.3421 18.7734 15.5038 18.3213 16.3912C17.9236 17.1717 17.2889 17.8064 16.5084 18.2041C15.621 18.6562 14.4593 18.6562 12.1359 18.6562H11.5828C9.25947 18.6562 8.0978 18.6562 7.2104 18.2041C6.42982 17.8064 5.79519 17.1717 5.39747 16.3912C4.94531 15.5038 4.94531 14.3421 4.94531 12.0187V11.4656ZM11.5828 6.21094H12.1359C13.3204 6.21094 14.1256 6.21201 14.748 6.26286C15.3543 6.3124 15.6643 6.40218 15.8806 6.51237C16.401 6.77752 16.824 7.20061 17.0892 7.721C17.1994 7.93727 17.2892 8.2473 17.3387 8.85354C17.3896 9.47593 17.3906 10.2811 17.3906 11.4656V12.0187C17.3906 13.2032 17.3896 14.0084 17.3387 14.6308C17.2892 15.2371 17.1994 15.5471 17.0892 15.7634C16.824 16.2838 16.401 16.7069 15.8806 16.972C15.6643 17.0822 15.3543 17.172 14.748 17.2215C14.1256 17.2724 13.3204 17.2734 12.1359 17.2734H11.5828C10.3983 17.2734 9.59312 17.2724 8.97073 17.2215C8.36449 17.172 8.05445 17.0822 7.83818 16.972C7.3178 16.7069 6.89471 16.2838 6.62956 15.7634C6.51936 15.5471 6.42958 15.2371 6.38005 14.6308C6.3292 14.0084 6.32812 13.2032 6.32812 12.0187V11.4656C6.32812 10.2811 6.3292 9.47593 6.38005 8.85354C6.42958 8.2473 6.51936 7.93727 6.62956 7.721C6.89471 7.20061 7.3178 6.77752 7.83818 6.51237C8.05445 6.40218 8.36449 6.3124 8.97073 6.26286C9.59312 6.21201 10.3983 6.21094 11.5828 6.21094Z" fill="#171848"/>
</svg>
