<svg width="23" height="23" viewBox="0 0 23 23" fill="none" xmlns="http://www.w3.org/2000/svg">
<rect x="1.89844" y="2.0625" width="19.3594" height="19.3594" rx="9.67969" fill="white"/>
<path d="M9.24017 7.3809C9.24017 8.02705 8.68011 8.55086 7.98923 8.55086C7.29835 8.55086 6.73828 8.02705 6.73828 7.3809C6.73828 6.73475 7.29835 6.21094 7.98923 6.21094C8.68011 6.21094 9.24017 6.73475 9.24017 7.3809Z" fill="#171848"/>
<path d="M6.90935 9.41083H9.04772V15.8906H6.90935V9.41083Z" fill="#171848"/>
<path d="M12.4905 9.41083H10.3521V15.8906H12.4905C12.4905 15.8906 12.4905 13.8507 12.4905 12.5752C12.4905 11.8097 12.7519 11.0408 13.7949 11.0408C14.9736 11.0408 14.9665 12.0426 14.961 12.8188C14.9539 13.8333 14.971 14.8686 14.971 15.8906H17.1094V12.4707C17.0913 10.287 16.5222 9.28084 14.6502 9.28084C13.5385 9.28084 12.8494 9.78555 12.4905 10.2422V9.41083Z" fill="#171848"/>
</svg>
