<svg width="23" height="23" viewBox="0 0 23 23" fill="none" xmlns="http://www.w3.org/2000/svg">
<path d="M8.22893 20.0391C5.99224 20.0391 3.90725 19.3885 2.15234 18.266C3.64232 18.3624 6.27179 18.1316 7.90732 16.5715C5.44695 16.4586 4.33737 14.5716 4.19264 13.7652C4.40169 13.8459 5.39871 13.9426 5.96153 13.7168C3.1313 13.0072 2.69712 10.5235 2.79361 9.76544C3.32428 10.1364 4.2248 10.2654 4.57858 10.2332C1.94132 8.34616 2.89009 5.50761 3.35644 4.89474C5.24903 7.51677 8.08544 8.9894 11.5944 9.07131C11.5283 8.78114 11.4933 8.47904 11.4933 8.16875C11.4933 5.94192 13.2933 4.13672 15.5136 4.13672C16.6736 4.13672 17.7189 4.62952 18.4527 5.41778C19.2279 5.23613 20.3946 4.81089 20.965 4.44315C20.6775 5.47535 19.7825 6.33642 19.2411 6.65556C19.2367 6.64466 19.2456 6.66642 19.2411 6.65556C19.7166 6.58363 21.0034 6.33634 21.5117 5.99145C21.2603 6.57133 20.3114 7.53548 19.5327 8.07526C19.6776 14.465 14.7888 20.0391 8.22893 20.0391Z" fill="white"/>
</svg>
