<svg width="25" height="24" viewBox="0 0 25 24" fill="none" xmlns="http://www.w3.org/2000/svg">
<g clip-path="url(#clip0_2712_3650)">
<path d="M5.5 17C5.5 17.5304 5.71071 18.0391 6.08579 18.4142C6.46086 18.7893 6.96957 19 7.5 19C8.03043 19 8.53914 18.7893 8.91421 18.4142C9.28929 18.0391 9.5 17.5304 9.5 17C9.5 16.4696 9.28929 15.9609 8.91421 15.5858C8.53914 15.2107 8.03043 15 7.5 15C6.96957 15 6.46086 15.2107 6.08579 15.5858C5.71071 15.9609 5.5 16.4696 5.5 17Z" stroke="#EB9D55" stroke-width="1.5" stroke-linecap="round" stroke-linejoin="round"/>
<path d="M15.5 17C15.5 17.5304 15.7107 18.0391 16.0858 18.4142C16.4609 18.7893 16.9696 19 17.5 19C18.0304 19 18.5391 18.7893 18.9142 18.4142C19.2893 18.0391 19.5 17.5304 19.5 17C19.5 16.4696 19.2893 15.9609 18.9142 15.5858C18.5391 15.2107 18.0304 15 17.5 15C16.9696 15 16.4609 15.2107 16.0858 15.5858C15.7107 15.9609 15.5 16.4696 15.5 17Z" stroke="#EB9D55" stroke-width="1.5" stroke-linecap="round" stroke-linejoin="round"/>
<path d="M5.5 17H3.5V11M3.5 11L5.5 6H14.5L18.5 11M3.5 11H18.5M18.5 11H19.5C20.0304 11 20.5391 11.2107 20.9142 11.5858C21.2893 11.9609 21.5 12.4696 21.5 13V17H19.5M15.5 17H9.5M12.5 11V6" stroke="#EB9D55" stroke-width="1.5" stroke-linecap="round" stroke-linejoin="round"/>
</g>
<defs>
<clipPath id="clip0_2712_3650">
<rect width="24" height="24" fill="white" transform="translate(0.5)"/>
</clipPath>
</defs>
</svg>
