<svg width="25" height="24" viewBox="0 0 25 24" fill="none" xmlns="http://www.w3.org/2000/svg">
<g clip-path="url(#clip0_2712_3623)">
<path d="M3.5 12C3.5 13.1819 3.73279 14.3522 4.18508 15.4442C4.63738 16.5361 5.30031 17.5282 6.13604 18.364C6.97177 19.1997 7.96392 19.8626 9.05585 20.3149C10.1478 20.7672 11.3181 21 12.5 21C13.6819 21 14.8522 20.7672 15.9442 20.3149C17.0361 19.8626 18.0282 19.1997 18.864 18.364C19.6997 17.5282 20.3626 16.5361 20.8149 15.4442C21.2672 14.3522 21.5 13.1819 21.5 12C21.5 10.8181 21.2672 9.64778 20.8149 8.55585C20.3626 7.46392 19.6997 6.47177 18.864 5.63604C18.0282 4.80031 17.0361 4.13738 15.9442 3.68508C14.8522 3.23279 13.6819 3 12.5 3C11.3181 3 10.1478 3.23279 9.05585 3.68508C7.96392 4.13738 6.97177 4.80031 6.13604 5.63604C5.30031 6.47177 4.63738 7.46392 4.18508 8.55585C3.73279 9.64778 3.5 10.8181 3.5 12Z" stroke="#915BCF" stroke-width="1.5" stroke-linecap="round" stroke-linejoin="round"/>
<path d="M12.5 12L15.5 14" stroke="#915BCF" stroke-width="1.5" stroke-linecap="round" stroke-linejoin="round"/>
<path d="M12.5 7V12" stroke="#915BCF" stroke-width="1.5" stroke-linecap="round" stroke-linejoin="round"/>
</g>
<defs>
<clipPath id="clip0_2712_3623">
<rect width="24" height="24" fill="white" transform="translate(0.5)"/>
</clipPath>
</defs>
</svg>
