<svg width="38" height="40" viewBox="0 0 38 40" fill="none" xmlns="http://www.w3.org/2000/svg">
<path d="M25.666 5C25.666 3.67392 24.9636 2.40215 23.7134 1.46447C22.4631 0.526784 20.7674 0 18.9993 0C17.2312 0 15.5355 0.526784 14.2853 1.46447C13.035 2.40215 12.3326 3.67392 12.3326 5C12.3326 6.32608 13.035 7.59785 14.2853 8.53553C15.5355 9.47322 17.2312 10 18.9993 10C20.7674 10 22.4631 9.47322 23.7134 8.53553C24.9636 7.59785 25.666 6.32608 25.666 5ZM14.9264 13.2266C12.4576 12.5703 10.291 11.3281 8.80139 9.64844L6.77014 7.35938C5.74931 6.21094 3.68681 5.90625 2.14514 6.67188C0.603475 7.4375 0.197225 8.99219 1.21806 10.1406L3.25973 12.4219C5.14514 14.5391 7.71806 16.2031 10.666 17.2969V37.5C10.666 38.8828 12.1556 40 13.9993 40C15.8431 40 17.3326 38.8828 17.3326 37.5V30H20.666V37.5C20.666 38.8828 22.1556 40 23.9993 40C25.8431 40 27.3326 38.8828 27.3326 37.5V17.3125C30.3639 16.2031 32.9993 14.4844 34.9056 12.2969L36.8014 10.1172C37.8014 8.96094 37.3639 7.41406 35.8222 6.65625C34.2806 5.89844 32.2181 6.22656 31.2076 7.39062L29.3118 9.5625C27.041 12.1719 23.1764 13.75 19.0201 13.75C17.7076 13.75 16.4264 13.5938 15.2076 13.2969C15.1139 13.2734 15.0201 13.2422 14.9264 13.2266Z" fill="#018870"/>
</svg>
