<svg width="30" height="34" viewBox="0 0 30 34" fill="none" xmlns="http://www.w3.org/2000/svg">
<path fill-rule="evenodd" clip-rule="evenodd" d="M1.95333 2.28732C-2.38419e-07 4.23898 0 7.38232 0 13.6673V20.334C0 26.619 -2.38419e-07 29.7623 1.95333 31.714C3.905 33.6673 7.04833 33.6673 13.3333 33.6673H16.6667C22.9517 33.6673 26.095 33.6673 28.0467 31.714C29.9683 29.794 30 26.7207 30 20.634L25.3033 25.3307C24.8533 25.7807 24.485 26.149 24.07 26.474C23.5824 26.8541 23.0548 27.1799 22.4967 27.4457C21.9849 27.6751 21.4595 27.8727 20.9233 28.0373L17.07 29.3223C16.4583 29.5263 15.8019 29.5559 15.1743 29.4078C14.5467 29.2597 13.9728 28.9398 13.5168 28.4838C13.0609 28.0278 12.7409 27.4539 12.5928 26.8263C12.4447 26.1988 12.4743 25.5423 12.6783 24.9307L13.135 23.564L13.9267 21.1873L13.9617 21.0773C14.1633 20.474 14.3283 19.9807 14.555 19.504C14.8217 18.9457 15.1467 18.419 15.5267 17.9323C15.8517 17.5157 16.22 17.149 16.67 16.699L23.3467 10.0207L25.2 8.16732L25.4117 7.95565C25.9781 7.38765 26.6512 6.93724 27.3923 6.63033C28.1334 6.32342 28.9279 6.16606 29.73 6.16732C29.4783 4.45065 28.99 3.22898 28.0467 2.28732C26.095 0.333984 22.9517 0.333984 16.6667 0.333984H13.3333C7.04833 0.333984 3.905 0.333984 1.95333 2.28732ZM7.08333 12.0007C7.08333 11.6691 7.21503 11.3512 7.44945 11.1168C7.68387 10.8823 8.00181 10.7507 8.33333 10.7507H19.1667C19.4982 10.7507 19.8161 10.8823 20.0505 11.1168C20.285 11.3512 20.4167 11.6691 20.4167 12.0007C20.4167 12.3322 20.285 12.6501 20.0505 12.8845C19.8161 13.119 19.4982 13.2507 19.1667 13.2507H8.33333C8.00181 13.2507 7.68387 13.119 7.44945 12.8845C7.21503 12.6501 7.08333 12.3322 7.08333 12.0007ZM7.08333 18.6673C7.08333 18.3358 7.21503 18.0179 7.44945 17.7834C7.68387 17.549 8.00181 17.4173 8.33333 17.4173H12.5C12.8315 17.4173 13.1495 17.549 13.3839 17.7834C13.6183 18.0179 13.75 18.3358 13.75 18.6673C13.75 18.9988 13.6183 19.3168 13.3839 19.5512C13.1495 19.7856 12.8315 19.9173 12.5 19.9173H8.33333C8.00181 19.9173 7.68387 19.7856 7.44945 19.5512C7.21503 19.3168 7.08333 18.9988 7.08333 18.6673ZM7.08333 25.334C7.08333 25.0025 7.21503 24.6845 7.44945 24.4501C7.68387 24.2157 8.00181 24.084 8.33333 24.084H10.8333C11.1649 24.084 11.4828 24.2157 11.7172 24.4501C11.9516 24.6845 12.0833 25.0025 12.0833 25.334C12.0833 25.6655 11.9516 25.9834 11.7172 26.2179C11.4828 26.4523 11.1649 26.584 10.8333 26.584H8.33333C8.00181 26.584 7.68387 26.4523 7.44945 26.2179C7.21503 25.9834 7.08333 25.6655 7.08333 25.334Z" fill="#018870"/>
</svg>
