<svg width="27" height="26" viewBox="0 0 27 26" fill="none" xmlns="http://www.w3.org/2000/svg">
<path d="M3.00001 12.8501C2.99713 10.3883 3.90405 8.01211 5.54682 6.17731C7.18959 4.3425 9.45253 3.17824 11.9016 2.90785C14.3507 2.63745 16.8135 3.27995 18.8176 4.71212C20.8217 6.14428 22.2261 8.26527 22.7613 10.6683C23.4604 10.9498 24.0748 11.4071 24.545 11.9956C25.0152 12.5842 25.3252 13.2842 25.445 14.0277C25.4817 13.6406 25.5 13.248 25.5 12.8501C25.5 5.95253 19.9038 0.361328 13 0.361328C6.09626 0.361328 0.500011 5.95253 0.500011 12.8501C0.497826 14.4885 0.819335 16.1113 1.44611 17.6254C2.07288 19.1395 2.99259 20.5151 4.15251 21.6733C4.38673 21.9078 4.7046 22.0398 5.03618 22.0401C5.36777 22.0405 5.68592 21.9092 5.92064 21.6752C6.15535 21.4412 6.28741 21.1236 6.28776 20.7923C6.28812 20.461 6.15673 20.1432 5.92251 19.9087C4.99415 18.9824 4.25807 17.8819 3.75654 16.6706C3.25502 15.4593 2.99792 14.1609 3.00001 12.8501ZM20.1125 10.4697C19.7527 9.39898 19.1552 8.42338 18.3649 7.61584C17.5745 6.80831 16.6116 6.18973 15.5482 5.80637C14.4849 5.423 13.3485 5.28477 12.2241 5.402C11.0997 5.51923 10.0164 5.88889 9.0552 6.48335C8.09396 7.0778 7.27966 7.88167 6.67319 8.83485C6.06672 9.78802 5.68376 10.8658 5.55295 11.9877C5.42214 13.1096 5.54687 14.2465 5.9178 15.3134C6.28874 16.3804 6.89628 17.3497 7.69501 18.149C7.81115 18.2651 7.94904 18.3573 8.10081 18.4201C8.25259 18.483 8.41527 18.5154 8.57957 18.5154C8.74387 18.5155 8.90657 18.4832 9.05839 18.4205C9.21021 18.3577 9.34817 18.2657 9.46439 18.1496C9.58061 18.0336 9.67281 17.8958 9.73574 17.7442C9.79867 17.5926 9.83109 17.43 9.83115 17.2659C9.83121 17.1017 9.7989 16.9392 9.73608 16.7875C9.67326 16.6358 9.58115 16.498 9.46501 16.3819C8.91586 15.833 8.50227 15.1638 8.25704 14.4274C8.01181 13.691 7.94167 12.9077 8.0522 12.1395C8.16273 11.3713 8.45089 10.6394 8.89381 10.0018C9.33674 9.36429 9.92225 8.83862 10.6039 8.4665C11.2856 8.09438 12.0447 7.88606 12.8209 7.85806C13.5972 7.83006 14.3693 7.98315 15.0761 8.30519C15.7828 8.62722 16.4048 9.10935 16.8926 9.71334C17.3803 10.3173 17.7206 11.0265 17.8863 11.7848C18.4791 11.1321 19.2543 10.6737 20.1125 10.4697ZM10.5 12.8501C10.5 12.1876 10.7634 11.5523 11.2322 11.0839C11.7011 10.6155 12.337 10.3523 13 10.3523C13.6631 10.3523 14.2989 10.6155 14.7678 11.0839C15.2366 11.5523 15.5 12.1876 15.5 12.8501C15.5 13.5125 15.2366 14.1478 14.7678 14.6162C14.2989 15.0846 13.6631 15.3478 13 15.3478C12.337 15.3478 11.7011 15.0846 11.2322 14.6162C10.7634 14.1478 10.5 13.5125 10.5 12.8501ZM24.25 14.7234C24.25 15.5514 23.9208 16.3456 23.3347 16.9311C22.7487 17.5166 21.9538 17.8455 21.125 17.8455C20.2962 17.8455 19.5014 17.5166 18.9153 16.9311C18.3292 16.3456 18 15.5514 18 14.7234C18 13.8953 18.3292 13.1012 18.9153 12.5156C19.5014 11.9301 20.2962 11.6012 21.125 11.6012C21.9538 11.6012 22.7487 11.9301 23.3347 12.5156C23.9208 13.1012 24.25 13.8953 24.25 14.7234ZM26.75 21.436C26.75 23.3793 25.1425 25.3388 21.125 25.3388C17.1075 25.3388 15.5 23.3868 15.5 21.436V21.3074C15.5 20.0835 16.4925 19.0944 17.7163 19.0944H24.5338C25.7588 19.0944 26.75 20.0848 26.75 21.3074V21.436Z" fill="#018870"/>
</svg>
