<svg width="28" height="29" viewBox="0 0 28 29" fill="none" xmlns="http://www.w3.org/2000/svg">
<path d="M6.91022 10.1271C7.21022 10.1271 7.50122 10.1706 7.77422 10.256C8.80946 9.09709 9.9565 8.04294 11.1987 7.10885C11.071 6.57521 11.096 6.01647 11.2707 5.4963C9.86956 4.49303 8.35329 3.66087 6.75422 3.01754C5.24698 3.94893 3.93229 5.16019 2.88123 6.58582C3.65973 7.96458 4.58523 9.24891 5.63822 10.4179C6.02222 10.232 6.45272 10.1271 6.91022 10.1271ZM3.97323 13.06C3.97323 12.6478 4.06023 12.2552 4.21172 11.9015C3.2676 10.8648 2.41681 9.74703 1.66923 8.56104C0.700968 10.4813 0.197459 12.6018 0.199226 14.7519C0.196641 17.2346 0.867966 19.6714 2.14173 21.8031C2.5774 19.3654 3.39761 17.0122 4.57172 14.8314C4.18316 14.3225 3.97286 13.7 3.97323 13.06ZM14.0532 3.49411C14.8287 3.49411 15.5307 3.79534 16.0572 4.2869C17.6063 3.61885 19.2232 3.12039 20.8797 2.80024C18.7879 1.59385 16.4145 0.960082 13.9992 0.9629C12.3413 0.961866 10.6968 1.2604 9.14522 1.8441C10.3398 2.43359 11.4824 3.12293 12.5607 3.90474C12.9987 3.64398 13.5072 3.49411 14.0532 3.49411ZM18.4422 17.3101C18.6227 16.9312 18.8832 16.5958 19.2057 16.327C18.3469 13.6919 16.9859 11.2476 15.1977 9.12902C14.7351 9.32462 14.2299 9.39826 13.7306 9.34289C13.2314 9.28752 12.7547 9.105 12.3462 8.81281C11.2824 9.62016 10.2961 10.5248 9.40022 11.5149C9.6258 11.8717 9.77049 12.2735 9.82413 12.6922C9.87777 13.1108 9.83906 13.5361 9.71072 13.9382C12.3361 15.6928 15.3181 16.8444 18.4422 17.3101ZM22.2507 21.2711C22.3603 22.811 22.3196 24.3579 22.1292 25.8899C24.4984 24.1632 26.2567 21.7284 27.1497 18.9377C26.0738 19.1981 24.9804 19.3809 23.8782 19.4847C23.7494 19.8808 23.5376 20.2449 23.257 20.5529C22.9764 20.861 22.6334 21.1057 22.2507 21.2711ZM17.7552 19.2824C14.4179 18.7269 11.2403 17.457 8.44022 15.5597C7.80241 15.9516 7.03862 16.0846 6.30572 15.9314C4.958 18.4806 4.14204 21.2765 3.90723 24.15C5.22959 25.5707 6.8371 26.6967 8.62472 27.4545C10.8907 23.9711 14.0415 21.1511 17.7552 19.2824ZM23.2632 4.53118C21.0976 4.74279 18.9768 5.28249 16.9737 6.13173C17.0286 6.67566 16.9293 7.22403 16.6872 7.7143C18.6743 10.0425 20.1871 12.7361 21.1407 15.6436C21.7092 15.6539 22.2624 15.8285 22.7336 16.1463C23.2048 16.4641 23.5737 16.9116 23.7957 17.4345C25.1247 17.2996 26.4177 17.0449 27.6627 16.6792C27.9811 14.4492 27.7464 12.1752 26.9793 10.057C26.2122 7.93885 24.9361 6.04133 23.2632 4.53118ZM19.2327 20.8484C15.7734 22.4668 12.8096 24.9792 10.6482 28.1259C11.7441 28.3999 12.8695 28.5384 13.9992 28.538C16.0111 28.5398 17.9989 28.1003 19.8222 27.2507C20.1072 25.8599 20.2572 24.4227 20.2572 22.951C20.2572 22.419 20.2332 21.8915 20.1927 21.37C19.8424 21.2588 19.5165 21.0818 19.2327 20.8484Z" fill="#018870"/>
</svg>
