<svg width="20" height="26" viewBox="0 0 20 26" fill="none" xmlns="http://www.w3.org/2000/svg">
<path d="M0 3.93433C2.37459e-05 3.76825 0.0332012 3.60385 0.0975913 3.45074C0.161981 3.29763 0.256291 3.15889 0.375 3.04264C1.73731 1.70839 3.55731 0.942947 5.46457 0.902112C7.37183 0.861278 9.22299 1.54812 10.6413 2.82283L11.08 3.23246C11.9918 4.03062 13.1628 4.47063 14.375 4.47063C15.5873 4.47063 16.7582 4.03062 17.67 3.23246L17.9813 2.94897C18.7438 2.34577 19.89 2.82783 19.9938 3.79321L20 3.93433V15.1742C20 15.3403 19.9668 15.5047 19.9024 15.6578C19.838 15.8109 19.7437 15.9496 19.625 16.0659C18.2627 17.4001 16.4427 18.1656 14.5354 18.2064C12.6282 18.2472 10.777 17.5604 9.35875 16.2857L8.92 15.876C8.03692 15.103 6.90971 14.6651 5.7359 14.6391C4.56209 14.613 3.41654 15.0005 2.5 15.7337V23.9163C2.49965 24.2346 2.37765 24.5408 2.15894 24.7722C1.94023 25.0037 1.64131 25.143 1.32326 25.1616C1.0052 25.1803 0.692026 25.0769 0.44771 24.8726C0.203393 24.6683 0.0463795 24.3785 0.00874996 24.0624L0 23.9163V3.93433Z" fill="#018870"/>
</svg>
